<?xml version="1.0" encoding="UTF-8" standalone="no"?>
<!DOCTYPE svg PUBLIC "-//W3C//DTD SVG 1.1//EN"
 "http://www.w3.org/Graphics/SVG/1.1/DTD/svg11.dtd">
<!-- Generated by graphviz version 14.1.2 (20260124.0452)
 -->
<!-- Title: GrammarPortingLegend Pages: 1 -->
<svg width="177pt" height="263pt"
 viewBox="0.00 0.00 177.00 263.00" xmlns="http://www.w3.org/2000/svg" xmlns:xlink="http://www.w3.org/1999/xlink">
<g id="graph0" class="graph" transform="scale(1 1) rotate(0) translate(4 259)">
<title>GrammarPortingLegend</title>
<polygon fill="white" stroke="none" points="-4,4 -4,-259 172.75,-259 172.75,4 -4,4"/>
<g id="clust1" class="cluster">
<title>cluster_legend</title>
<polygon fill="none" stroke="gray" stroke-dasharray="5,2" points="8,-8 8,-247 160.75,-247 160.75,-8 8,-8"/>
<text xml:space="preserve" text-anchor="middle" x="84.38" y="-229.7" font-family="Times,serif" font-size="14.00">Legend</text>
</g>
<!-- Todo -->
<g id="node1" class="node">
<title>Todo</title>
<polygon fill="none" stroke="gray" points="138.38,-52 30.38,-52 30.38,-16 138.38,-16 138.38,-52"/>
<text xml:space="preserve" text-anchor="middle" x="84.38" y="-28.2" font-family="Sans" font-size="14.00">Todo</text>
</g>
<!-- Incomplete -->
<g id="node2" class="node">
<title>Incomplete</title>
<polygon fill="none" stroke="red" points="138.38,-106 30.38,-106 30.38,-70 138.38,-70 138.38,-106"/>
<text xml:space="preserve" text-anchor="middle" x="84.38" y="-82.2" font-family="Sans" font-size="14.00">Incomplete</text>
</g>
<!-- Tested -->
<g id="node3" class="node">
<title>Tested</title>
<polygon fill="orange" stroke="black" points="138.38,-160 30.38,-160 30.38,-124 138.38,-124 138.38,-160"/>
<text xml:space="preserve" text-anchor="middle" x="84.38" y="-136.2" font-family="Sans" font-size="14.00">Tested</text>
</g>
<!-- SubGraphComplete -->
<g id="node4" class="node">
<title>SubGraphComplete</title>
<polygon fill="lightgreen" stroke="black" points="152.75,-214 16,-214 16,-178 152.75,-178 152.75,-214"/>
<text xml:space="preserve" text-anchor="middle" x="84.38" y="-190.2" font-family="Sans" font-size="14.00">SubGraphComplete</text>
</g>
</g>
</svg>
